<svg xmlns="http://www.w3.org/2000/svg" viewBox="0 0 396.49 73.43"><defs><style>.cls-1{stroke:#50e3c2;stroke-linejoin:round;stroke-width:3px;}</style></defs><title>Asset 1</title><g id="Layer_2" data-name="Layer 2"><g id="Layer_1-2" data-name="Layer 1"><path class="cls-1" d="M79.58,13.11H76V45h3.54V56.57H52.82V45h3.4V20.19l-12,36.38H33.71l-12.39-36V45h3.4V56.57H1.5V45H5V13.11H1.5V1.5H33.92l7.36,22.08L48.36,1.5H79.58Z"/><path class="cls-1" d="M128.84,45V56.57H109.45V51.05q-5.1,6.51-12.74,6.51-5.88,0-8.82-3.68T85,43.76V28.82H81.84V17.21h19.4V40.43a4.9,4.9,0,0,0,1,3.43,4.86,4.86,0,0,0,6.16,0,4.9,4.9,0,0,0,1-3.43V28.82h-3.83V17.21h20.11V45Z"/><path class="cls-1" d="M130.82,54.73V44.25h11.47V45q0,3.4,4.32,3.4,3.82,0,3.82-2.62a2.36,2.36,0,0,0-1.1-2.12,11.39,11.39,0,0,0-3.86-1.21l-3.53-.63q-11.12-2-11.12-12.6a11.15,11.15,0,0,1,4.67-9.56q4.68-3.39,12.6-3.4,8.85,0,14.94,3V29H152.27v-.71a2.55,2.55,0,0,0-1-2.16,4.44,4.44,0,0,0-2.79-.74c-2.36,0-3.54.75-3.54,2.26a2.05,2.05,0,0,0,1,1.84,11.64,11.64,0,0,0,3.61,1.2l4,.78q6.3,1.21,9,4.46a12.66,12.66,0,0,1,2.69,8.36q0,6.44-4.49,9.83T148,57.56A52.76,52.76,0,0,1,130.82,54.73Z"/><path class="cls-1" d="M167.56,56.57V45h3.11V28.82h-3.11V17.21H187V45h3.12V56.57ZM171,13.32V1.5H185.4V13.32Z"/><path class="cls-1" d="M197.43,52.29q-5.67-5.28-5.66-15.4t5.66-15.39q5.65-5.28,15.71-5.28a32.13,32.13,0,0,1,9.35,1.35,25.28,25.28,0,0,1,6.93,3v14H217.25V33.35a5,5,0,0,0-1-3.43,4,4,0,0,0-3.12-1.1q-4.09,0-4.1,4.53v6.09q0,5.52,6.3,5.52A85.86,85.86,0,0,0,229,43.69V54.8a32.77,32.77,0,0,1-6.76,1.91,46.73,46.73,0,0,1-9,.85Q203.1,57.56,197.43,52.29Z"/><path class="cls-1" d="M232,45h3.54V13.11H232V1.5h31.08q9.12,0,13.94,3.93t4.81,12.7q0,8.79-4.81,12.71t-13.94,3.93h-7.72V45h6.8V56.57H232Zm25.77-20.24q4.1,0,4.1-4.53V17.64a4.9,4.9,0,0,0-1-3.43,4,4,0,0,0-3.08-1.1h-2.41V24.72Z"/><path class="cls-1" d="M284.07,56.64V45h3.11V13.11h-3.11V1.5h19.39V45h3.12V56.64Z"/><path class="cls-1" d="M350.11,45V56.57H331.42V51.76a14.78,14.78,0,0,1-4.35,4,12.51,12.51,0,0,1-6.83,1.77q-5.31,0-8.35-2.83c-2-1.89-3.05-4.55-3.05-8q0-13.38,22.72-13.73a3.81,3.81,0,0,0-1.84-3.29,12.36,12.36,0,0,0-5.52-.89,37.67,37.67,0,0,0-6.83.68,39.7,39.7,0,0,0-6.69,1.8v-13a73.21,73.21,0,0,1,8.14-1.49,66.54,66.54,0,0,1,8.57-.57q10.55,0,15.07,3.83T347,31.87V45Zm-18.69-5a11.41,11.41,0,0,0-4.92.85,2.92,2.92,0,0,0-1.73,2.83,2.63,2.63,0,0,0,.74,1.94,2.81,2.81,0,0,0,2.09.75,3.16,3.16,0,0,0,2.83-1.56,8.18,8.18,0,0,0,1-4.39Z"/><path class="cls-1" d="M395,17.21V28.82H392.3L383,53.38q-3.47,9.28-7.92,13.91a15.57,15.57,0,0,1-11.75,4.64,31,31,0,0,1-6-.6,28,28,0,0,1-5.52-1.66V56.85h9.77v.71c0,1.18.61,1.77,1.84,1.77a2.67,2.67,0,0,0,2.47-1.56L354.71,28.82H352V17.21h21V28.82h-2.4l3.68,11,3.4-11h-2.41V17.21Z"/></g></g></svg>